<?xml version="1.0" encoding="UTF-8"?>
<svg version="1.1" viewBox="0 0 2048 1151" width="1366" height="768" xmlns="http://www.w3.org/2000/svg">
<path transform="translate(1296,369)" d="m0 0h7l3 2v91h53l2 3 1 9 2 10 1 10 1 1v10l-1 1-58 1v99l1 13 3 13 5 7 4 3 4 1 14-1 7-2h12l3 8 2 26 1 1v5l-4 5-25 4h-23l-20-5-4-3-5-2-12-11-6-9-6-13-5-20-1-10-1-109h-17l-10 1 5 12 4 17 1 2 1 11v47l-2 1h-146l2 12 5 13 5 6 6 5 9 5 11 3 9 1h23l14-1 12-2 11-1 19-4h6l4 3-1 15-1 1-2 22-3 4-21 5-18 2-2 1-14 1h-34l-26-4-21-7-4-3-5-2-10-7v-2l-4-2-9-10-8-14-1 44-3 3h-48l-3-3-1-138-1-2-2-16-5-9-7-6-9-3-13-1-19 3-11 4-10 9-4 5-5 13-1 130-1 11-3 3h-49l-3-5-1-43-6 11-9 11-9 9-15 9-12 5-8 3-25 4h-28l-23-4-18-6-13-8-11-9-9-10-5-8-1 36-4 5h-49l-3-6-1-145-4-12-7-10-16-5h-10l-17 3-11 4-10 7-8 14-2 6-1 8-1 132-4 4h-47l-3-3-1-142-4-14-5-10-6-5-9-3-6-1h-8l-18 3-12 5-8 7-6 8-3 7-2 8-1 135-3 5h-49l-2-3-1-189-1-10-2-6v-9l1-2h50l3 5 1 6v8h2l2-4 14-10 11-5 11-3 15-2 21 1 14 2 12 3 14 7 10 9 6 7 1 4 4-2 1-2h2l1-3 8-7 8-6 15-8 17-4 16-1 23 2 15 3 16 8 10 8 6 8 6 10 4 11v7h2l1-6 6-10 9-12 11-9 13-8 17-7 15-3 9-1h33l12 2 13 3 15 5 8 5 11 8 12 12 8 13 2 4v-28l-2-10v-8l2-2h49l3 5 1 10 2 2 10-8 10-6 11-4 14-3 14-1 25 2 16 4 14 7 8 6 7 8 5 8 5 13 1 7 2 5 5-13 7-10 9-10 7-7 15-9 18-6 16-3 13-1h23l14 2 13 3 13 5 10 7 4 2-2-9v-6l3-4 46-1 1-85 4-3 22-3zm-558 137-17 3-9 4-10 7-6 7-4 10-4 15-1 11v25l2 14 3 12 7 13 7 7 10 6 10 3 9 1h16l14-3 7-3 9-6 7-8 5-10 5-20v-39l-6-21-6-10-8-8-8-5-10-3-14-2zm396 0-17 3-12 5-8 7-6 10-4 12v10h94l-1-11-4-13-6-10-10-8-13-4z" fill="#080808"/>
<path transform="translate(1435,462)" d="m0 0h28l14 1 17 3 9 4 6 1 15 8 8 7 3 1 1 3 4 2 3 5 6 8 1 4 4-4 7-10 4-5h2l1-3 13-10 17-8 16-4 10-2 12-1h24l14 2 13 3 13 5 10 7 10 9 7 9 6 10 3 6 5 18 4 22v43l-3 2h-145l2 14 8 15 9 8 8 4 11 3 9 1h22l14-1 12-2 12-1 19-4h6l2 1 1 3v8l-5 12-10 19-3 5-8 2-18 2-4 1-14 1h-33l-26-4-21-7-9-5-11-8-8-8-9-13v-3h-2l-2 6-9 12-10 10-17 10-17 6-17 3-10 1h-28l-23-4-8-4-10-4-11-8-10-10-10-16-6-19-4-22-1-2-1-16v-17l1-12 3-2 145-1-1-6-2-10-6-11-7-7-11-6-12-3-25-2-1 1-17 1-12 2-18 2-17 3-5-1-2-3 2-10 4-10 5-10 8-13 9-3 22-3z" fill="#050504"/>
<path transform="translate(1411,597)" d="m0 0h97v8l-4 14-5 9-5 6-9 6-12 4-16 2-13-1-13-5-9-8-6-10-4-13z" fill="#6A6857"/>
<path transform="translate(1635,506)" d="m0 0h24l13 5 9 8 6 10 5 17v8h-97v-7l4-15 5-9 5-6 11-7z" fill="#6A6857"/>
<path transform="translate(405,745)" d="m0 0h12l6 19 3 3 1-6 6-16h12v36l-1 1h-6l-2-2-1-16-4 12-4 6h-6l-4-10-3-8v-4h-2v21l-1 1h-5l-1-1z" fill="#21211F"/>
<path transform="translate(795,745)" d="m0 0h10l10 19 1 2 1-21h8v25l-1 12h-9l-8-14-4-9-1 22-1 1h-6l-1-2v-34z" fill="#3C3C38"/>
<path transform="translate(466,745)" d="m0 0h23l4 5v8l-1 5 3 5v6l-3 5-9 3h-16l-1-2zm8 6v7h10l2-4-3-3zm0 15v8l1 1h9l2-3-1-5-1-1z" fill="#40403C"/>
<path transform="translate(1231,745)" d="m0 0h12l11 22 1-22h7v36h-10l-5-7-4-10-2-3-1 19-1 1h-6l-1-1z" fill="#242421"/>
<path transform="translate(1296,743)" d="m0 0h9l6 3 1 1v5h-17l-3 6v10l3 5 3 2 7 1 1-10h-9v-6l2-2h12l2 1v22l-4 1h-15l-6-3-4-5-1-2v-18l5-8z" fill="#43433F"/>
<path transform="translate(556,743)" d="m0 0h7l9 4 5 8v15l-3 6-5 5-4 1h-11l-8-4-3-8v-15l3-6 4-4zm-1 8-3 3-2 6 1 9 3 5 4 2 7-1 3-5 2-8-3-9-2-2z" fill="#3B3B38"/>
<path transform="translate(858,743)" d="m0 0h9l7 2v7h-16l-2 1-2 7 1 10 3 4 9 1 1-9h-7l-2-3 3-5h13l1 22-5 2h-14l-8-4-3-5-1-6v-11l2-5 4-5z" fill="#373734"/>
<path transform="translate(897,745)" d="m0 0h25v6h-17v7h13l2 1v7h-15v9h17v6l-1 1h-23l-1-1-1-8v-26z" fill="#4F4E4B"/>
<path transform="translate(694,745)" d="m0 0h8v15h13v-15h8v36l-1 1h-6l-1-2v-14h-13v14l-1 1h-6l-1-1z" fill="#171714"/>
<path transform="translate(364,745)" d="m0 0h9l2 2 4 10 3 9 5 13-1 3h-6l-4-7v-3h-13l-2 6-3 4h-6l-1-3 2-3 4-13zm5 10-3 9h6l-2-9z" fill="#3D3C3A"/>
<path transform="translate(754,745)" d="m0 0h9l3 6 6 17 3 6 1 7-1 1h-6l-3-5v-5h-14l-3 9h-8l1-5 6-16 5-14zm4 12-3 7h7l-2-7z" fill="#393936"/>
<path transform="translate(1192,745)" d="m0 0h9l5 12 8 22v2h-8l-3-9h-14l-2 9h-8l-1-2 5-13 7-19zm4 11-4 8h7l-1-7z" fill="#3E3E3B"/>
<path transform="translate(1334,745)" d="m0 0h24l1 1v5h-17v7h14l1 1v6l-1 1h-14v9h16l2 3-3 4h-21l-2-2z" fill="#3E3E39"/>
<path transform="translate(1034,745)" d="m0 0h9l6 9 2 1 2-6 3-4h10l-7 11-4 5 2 5 9 13v2l-2 1h-6l-7-9v-4h-2l-2 5-4 7h-10l5-9 6-8-2-6-8-11z" fill="#42413F"/>
<path transform="translate(1131,745)" d="m0 0h8l1 14 13 1v-15h7v36h-7v-15h-14v15h-7z" fill="#2D2D28"/>
<path transform="translate(992,745)" d="m0 0h24v6h-16v9h15v5l-1 1h-14v9h16v6h-23l-1-3z" fill="#32312E"/>
<path transform="translate(1097,743)" d="m0 0h7l7 3v6h-15l-4 1v16l1 4 6 2h12v5l-3 2h-14l-7-4-5-8v-14l3-6 5-5z" fill="#464542"/>
<path transform="translate(321,743)" d="m0 0h8l6 3 1 1v5h-15l-4 2v17l3 3 7 1h9v5l-3 2h-14l-7-3-4-7-1-2v-15l6-9z" fill="#464643"/>
<path transform="translate(659,743)" d="m0 0h7l7 2 1 6-4 1h-12l-3 3v15l4 4 7 1h7v6l-3 1h-14l-5-3-5-6-1-3v-15l5-8 2-2z" fill="#3D3D3A"/>
<path transform="translate(1669,706)" d="m0 0 3 1 3 6 10 2 2 3-5 6v12l-5-1-2-1-9 1-2 2h-3v-8l1-3-8-7 4-3 7-2z" fill="#2B2A28"/>
<path transform="translate(1465,729)" d="m0 0 3 1 4 6 12 1-2 5-3 3 1 7 1 6-6-1-5-1-6 4-4 1v-12l-4-1-5-4v-2l11-3 2-9z" fill="#272725"/>
<path transform="translate(1541,751)" d="m0 0 5 1 4 2 6-1 3-2h3v12l6 7-4 2-7 2-4 8-3-1-4-8-8-1-3-3 7-7-1-4z" fill="#1C1C1A"/>
<path transform="translate(1597,375)" d="m0 0h2l3 10 9 3-2 4-4 3h-2v7l-2 4-4-1-5-4-11 2v-3l3-8-5-8v-2l12-1z" fill="#2A2A28"/>
<path transform="translate(1460,390)" d="m0 0 5 2 4 3 12-2-2 12 5 7v1l-12 2-5 7h-3l-2-10-8-2-3-1 1-3 7-4z" fill="#262624"/>
<path transform="translate(1637,729)" d="m0 0h2l3 9 9 4-2 4-4 3h-2v12l-4-1-6-4-4 1-7 1 2-12-4-6v-3l11-1z" fill="#2D2D2B"/>
<path transform="translate(1661,414)" d="m0 0 4 1 2 2h8l4-2h3v12l5 7v2l-11 1-5 8h-2l-4-8-11-4 5-6 3-2-1-3z" fill="#32322F"/>
<path transform="translate(1640,390)" d="m0 0h3l1 11 7 6v2l-8 3-2 2-2 8-4-2-5-6h-10l1-5 3-4-1-6-1-1v-5l6 1 5 1 6-4z" fill="#21211F"/>
<path transform="translate(1432,706)" d="m0 0 3 1 3 7 8 3 4 2-5 4-3 2v12l-4-1-3-2h-6l-4 2-4-1 1-11-5-5 1-4 9-1z" fill="#31312F"/>
<path transform="translate(1501,745)" d="m0 0 5 1 4 4 12-2-1 5-1 8 3 5v3l-12 1-4 6h-3l-2-6v-4l-10-3v-3l8-5z" fill="#32322F"/>
<path transform="translate(1550,369)" d="m0 0 4 2 2 4v4h7l5 2-6 7v12l-5-1-4-2-5 1-4 2h-3v-7l1-4-7-7 2-2 9-2z" fill="#363533"/>
<path transform="translate(1598,745)" d="m0 0 4 1 2 9 7 6v2l-9 3-3 9h-3l-5-5-12-1 2-4 3-5-2-6-1-5h7l5 1z" fill="#353532"/>
<path transform="translate(1439,414)" d="m0 0h3v12l7 5v2l-11 4-3 8-4-1-4-7-10-1 1-5 4-4-1-11h4l2 1h8z" fill="#333330"/>
<path transform="translate(1504,375)" d="m0 0 4 1 3 5 12 1-1 5-2 3 1 8 1 5-12-2-5 5h-4l-1-10-8-5v-3l9-3z" fill="#2F2F2D"/>
<path transform="translate(1502,532)" d="m0 0 3 3 4 16v3l-3 1h-146v33l2 19 1 10-2-2-2-13-1-2-1-16v-17l1-12 3-2 145-1-1-6-2-10z" fill="#888779"/>
<path transform="translate(982,529)" d="m0 0 2 3 2 9 1 18 1 123 1 1 47 1v1h-48l-3-3-1-138-1-2z" fill="#89877A"/>
<path transform="translate(1596,596)" d="m0 0h147l-1 2h-145l1 11-2-2-1-10z" fill="#6A6857"/>
<path transform="translate(514,745)" d="m0 0h8v37h-6l-2-2z" fill="#45443F"/>
<path transform="translate(715,745)" d="m0 0h8v36l-1 1h-6l-1-2v-14h-13v14h-1v-16h15l1 1 1 15h3l1-34h-5v14h-2z" fill="#8F8E81"/>
<path transform="translate(1502,532)" d="m0 0 3 3 4 16v3h-114v-1l111-1-1-6-2-10z" fill="#E9E9E6"/>
<path transform="translate(443,745)" d="m0 0h2v36l-1 1h-6l-2-2-1-21 1-5h2l1 26h3z" fill="#B2B1A9"/>
<path transform="translate(366,733)" d="m0 0h7l4 6-1 4-5-1h-3l-1 1h-6l1-5z" fill="#5F5F5B"/>
<path transform="translate(1038,631)" d="m0 0 2 4-1 47-2 1v-50z" fill="#807F70"/>
<path transform="translate(405,745)" d="m0 0h7v1h-6v34h4l1-28 2 1 2 6v5l-1-4h-2v21l-1 1h-5l-1-1z" fill="#807E70"/>
<path transform="translate(646,638)" d="m0 0 3 3-1 39-2 2z" fill="#FEFEFE"/>
<path transform="translate(676,478)" d="m0 0h2v2l-8 6-15 15v-3l7-9z" fill="#969690"/>
<path transform="translate(436,754)" d="m0 0h2l1 26 5 1v1h-6l-2-2-1-21z" fill="#B8B7AF"/>
<path transform="translate(1238,753)" d="m0 0h2l1 5-1 22-1 1h-6v-1h5z" fill="#A9A79E"/>
<path transform="translate(1596,596)" d="m0 0h20v2h-19l1 11-2-2-1-10z" fill="#BEBDB6"/>
<path transform="translate(851,746)" d="m0 0h2l-2 4-3 3v21l-2-1-1-6v-11l2-5z" fill="#ACACA5"/>
<path transform="translate(1579,478)" d="m0 0h2v2l-8 6-15 15 2-5 5-6h2l1-3z" fill="#898880"/>
<path transform="translate(1541,751)" d="m0 0 5 1 4 3-5-1-2-1 1 10-7 7-2-1 7-7-1-4z" fill="#BCBBB3"/>
<path transform="translate(1597,375)" d="m0 0h2v2l-8 7h-9l-1 3-2-5 12-1z" fill="#99988E"/>
<path transform="translate(1362,476)" d="m0 0h1l2 18 1 1v10h-3l1-4-2-14z" fill="#BCBBB4"/>
<path transform="translate(1559,751)" d="m0 0h3v12l6 7-4-2-5-5 1-10-4 1z" fill="#B4B3AA"/>
<path transform="translate(1640,390)" d="m0 0h3l1 11 5 5-5-2-3-5-1-6h-3z" fill="#B7B6AE"/>
<path transform="translate(1685,718)" d="m0 0v3l-3 3v12l-5-1 3-1-1-9z" fill="#E4E4E1"/>
<path transform="translate(370,757)" d="m0 0 2 1 2 8h-10l1-4 1 2h6l-2-4z" fill="#C3C2BC"/>
<path transform="translate(1633,733)" d="m0 0 1 3-3 3h-9l-1 3-1-5 11-1z" fill="#8D8C7F"/>
<path transform="translate(1621,409)" d="m0 0 1 3h9l3 4-1 2-4-4h-9z" fill="#908E83"/>
<path transform="translate(1470,735)" d="m0 0 2 1 12 1-2 4v-2h-10z" fill="#828172"/>
<path transform="translate(1478,393)" d="m0 0h3l-1 6-2 2 1-6-6 2h-5l-1-2 7-1z" fill="#AFAEA4"/>
<path transform="translate(756,759)" d="m0 0 1 2-1 2h8v3h-10l1-6z" fill="#A7A69C"/>
<path transform="translate(671,745)" d="m0 0h2l1 6-4 1h-13v-2h15z" fill="#C7C6C0"/>
<path transform="translate(1457,403)" d="m0 0 2 1-4 5 5 1-4 1-5-2 1-3z" fill="#B2B1AD"/>
<path transform="translate(1511,382)" d="m0 0h12l-1 5-1-3h-9z" fill="#7F7E6F"/>
<path transform="translate(1460,749)" d="m0 0 2 1v9l2 1-4 1z" fill="#8C8A7D"/>
</svg>
